<mxfile host="Electron" modified="2024-09-04T07:46:15.664Z" agent="Mozilla/5.0 (X11; Linux x86_64) AppleWebKit/537.36 (KHTML, like Gecko) draw.io/24.6.4 Chrome/124.0.6367.207 Electron/30.0.6 Safari/537.36" etag="uoXbo4uMIa354cEdJf3l" version="24.6.4" type="device">
  <diagram id="C5RBs43oDa-KdzZeNtuy" name="Page-1">
    <mxGraphModel dx="2261" dy="839" grid="1" gridSize="10" guides="1" tooltips="1" connect="1" arrows="1" fold="1" page="1" pageScale="1" pageWidth="827" pageHeight="1169" math="0" shadow="0">
      <root>
        <mxCell id="WIyWlLk6GJQsqaUBKTNV-0" />
        <mxCell id="WIyWlLk6GJQsqaUBKTNV-1" parent="WIyWlLk6GJQsqaUBKTNV-0" />
        <mxCell id="yUwyfiaK7U5Z7CPqH2BY-1" value="Start" style="ellipse;whiteSpace=wrap;html=1;" parent="WIyWlLk6GJQsqaUBKTNV-1" vertex="1">
          <mxGeometry x="119" y="45" width="120" height="80" as="geometry" />
        </mxCell>
        <mxCell id="yUwyfiaK7U5Z7CPqH2BY-13" value="QnA" style="strokeWidth=2;html=1;shape=mxgraph.flowchart.decision;whiteSpace=wrap;fontSize=14;horizontal=1;labelBackgroundColor=none;fontStyle=1" parent="WIyWlLk6GJQsqaUBKTNV-1" vertex="1">
          <mxGeometry x="-183" y="414" width="100" height="100" as="geometry" />
        </mxCell>
        <mxCell id="nwwSrx5HGY1ErbQ8Txnz-1" style="edgeStyle=orthogonalEdgeStyle;rounded=0;orthogonalLoop=1;jettySize=auto;html=1;exitX=0.5;exitY=1;exitDx=0;exitDy=0;exitPerimeter=0;entryX=0.5;entryY=0;entryDx=0;entryDy=0;" edge="1" parent="WIyWlLk6GJQsqaUBKTNV-1" source="yUwyfiaK7U5Z7CPqH2BY-14" target="yUwyfiaK7U5Z7CPqH2BY-36">
          <mxGeometry relative="1" as="geometry" />
        </mxCell>
        <mxCell id="yUwyfiaK7U5Z7CPqH2BY-14" value="Book a Call" style="strokeWidth=2;html=1;shape=mxgraph.flowchart.decision;whiteSpace=wrap;fontSize=14;horizontal=1;labelBackgroundColor=none;fontStyle=1" parent="WIyWlLk6GJQsqaUBKTNV-1" vertex="1">
          <mxGeometry x="33" y="414" width="100" height="100" as="geometry" />
        </mxCell>
        <mxCell id="yUwyfiaK7U5Z7CPqH2BY-15" value="Fun Activities" style="strokeWidth=2;html=1;shape=mxgraph.flowchart.decision;whiteSpace=wrap;fontSize=14;horizontal=1;labelBackgroundColor=none;fontStyle=1" parent="WIyWlLk6GJQsqaUBKTNV-1" vertex="1">
          <mxGeometry x="250" y="414" width="100" height="100" as="geometry" />
        </mxCell>
        <mxCell id="yUwyfiaK7U5Z7CPqH2BY-21" value="" style="verticalLabelPosition=bottom;verticalAlign=top;html=1;shape=mxgraph.flowchart.summing_function;" parent="WIyWlLk6GJQsqaUBKTNV-1" vertex="1">
          <mxGeometry x="164" y="291" width="30" height="31" as="geometry" />
        </mxCell>
        <mxCell id="yUwyfiaK7U5Z7CPqH2BY-23" value="" style="edgeStyle=segmentEdgeStyle;endArrow=classic;html=1;curved=0;rounded=0;endSize=8;startSize=8;exitX=1;exitY=0.5;exitDx=0;exitDy=0;exitPerimeter=0;entryX=0.5;entryY=0;entryDx=0;entryDy=0;entryPerimeter=0;" parent="WIyWlLk6GJQsqaUBKTNV-1" source="yUwyfiaK7U5Z7CPqH2BY-21" target="yUwyfiaK7U5Z7CPqH2BY-78" edge="1">
          <mxGeometry width="50" height="50" relative="1" as="geometry">
            <mxPoint x="165" y="421" as="sourcePoint" />
            <mxPoint x="445" y="391" as="targetPoint" />
          </mxGeometry>
        </mxCell>
        <mxCell id="yUwyfiaK7U5Z7CPqH2BY-25" value="" style="endArrow=classic;html=1;rounded=0;entryX=0.5;entryY=0;entryDx=0;entryDy=0;entryPerimeter=0;" parent="WIyWlLk6GJQsqaUBKTNV-1" target="yUwyfiaK7U5Z7CPqH2BY-14" edge="1">
          <mxGeometry width="50" height="50" relative="1" as="geometry">
            <mxPoint x="83" y="307" as="sourcePoint" />
            <mxPoint x="82" y="387" as="targetPoint" />
          </mxGeometry>
        </mxCell>
        <mxCell id="yUwyfiaK7U5Z7CPqH2BY-26" value="" style="endArrow=classic;html=1;rounded=0;entryX=0.5;entryY=0;entryDx=0;entryDy=0;entryPerimeter=0;" parent="WIyWlLk6GJQsqaUBKTNV-1" target="yUwyfiaK7U5Z7CPqH2BY-15" edge="1">
          <mxGeometry width="50" height="50" relative="1" as="geometry">
            <mxPoint x="300" y="307" as="sourcePoint" />
            <mxPoint x="300" y="387" as="targetPoint" />
          </mxGeometry>
        </mxCell>
        <mxCell id="yUwyfiaK7U5Z7CPqH2BY-27" value="" style="verticalLabelPosition=bottom;verticalAlign=top;html=1;shape=mxgraph.flowchart.or;" parent="WIyWlLk6GJQsqaUBKTNV-1" vertex="1">
          <mxGeometry x="164" y="639" width="30" height="31" as="geometry" />
        </mxCell>
        <mxCell id="yUwyfiaK7U5Z7CPqH2BY-32" value="" style="endArrow=classic;html=1;rounded=0;entryX=0;entryY=0.5;entryDx=0;entryDy=0;entryPerimeter=0;exitX=1;exitY=0.5;exitDx=0;exitDy=0;exitPerimeter=0;" parent="WIyWlLk6GJQsqaUBKTNV-1" source="yUwyfiaK7U5Z7CPqH2BY-45" target="yUwyfiaK7U5Z7CPqH2BY-27" edge="1">
          <mxGeometry width="50" height="50" relative="1" as="geometry">
            <mxPoint x="-75" y="654" as="sourcePoint" />
            <mxPoint x="215" y="414" as="targetPoint" />
          </mxGeometry>
        </mxCell>
        <mxCell id="yUwyfiaK7U5Z7CPqH2BY-33" value="" style="endArrow=classic;html=1;rounded=0;entryX=1;entryY=0.5;entryDx=0;entryDy=0;entryPerimeter=0;exitX=1;exitY=0.5;exitDx=0;exitDy=0;exitPerimeter=0;" parent="WIyWlLk6GJQsqaUBKTNV-1" source="yUwyfiaK7U5Z7CPqH2BY-46" target="yUwyfiaK7U5Z7CPqH2BY-27" edge="1">
          <mxGeometry width="50" height="50" relative="1" as="geometry">
            <mxPoint x="445" y="654" as="sourcePoint" />
            <mxPoint x="215" y="414" as="targetPoint" />
          </mxGeometry>
        </mxCell>
        <mxCell id="yUwyfiaK7U5Z7CPqH2BY-34" value="No" style="rounded=1;whiteSpace=wrap;html=1;" parent="WIyWlLk6GJQsqaUBKTNV-1" vertex="1">
          <mxGeometry x="457" y="564" width="40" height="21" as="geometry" />
        </mxCell>
        <mxCell id="yUwyfiaK7U5Z7CPqH2BY-35" value="No" style="rounded=1;whiteSpace=wrap;html=1;" parent="WIyWlLk6GJQsqaUBKTNV-1" vertex="1">
          <mxGeometry x="280" y="564" width="40" height="21" as="geometry" />
        </mxCell>
        <mxCell id="yUwyfiaK7U5Z7CPqH2BY-36" value="No" style="rounded=1;whiteSpace=wrap;html=1;" parent="WIyWlLk6GJQsqaUBKTNV-1" vertex="1">
          <mxGeometry x="63" y="598" width="40" height="21" as="geometry" />
        </mxCell>
        <mxCell id="yUwyfiaK7U5Z7CPqH2BY-37" value="No" style="rounded=1;whiteSpace=wrap;html=1;" parent="WIyWlLk6GJQsqaUBKTNV-1" vertex="1">
          <mxGeometry x="-153" y="564" width="40" height="21" as="geometry" />
        </mxCell>
        <mxCell id="yUwyfiaK7U5Z7CPqH2BY-40" value="" style="line;strokeWidth=2;direction=south;html=1;" parent="WIyWlLk6GJQsqaUBKTNV-1" vertex="1">
          <mxGeometry x="-138" y="514" width="10" height="51" as="geometry" />
        </mxCell>
        <mxCell id="yUwyfiaK7U5Z7CPqH2BY-41" value="" style="line;strokeWidth=2;direction=south;html=1;" parent="WIyWlLk6GJQsqaUBKTNV-1" vertex="1">
          <mxGeometry x="472" y="513" width="10" height="51" as="geometry" />
        </mxCell>
        <mxCell id="yUwyfiaK7U5Z7CPqH2BY-42" value="" style="line;strokeWidth=2;direction=south;html=1;" parent="WIyWlLk6GJQsqaUBKTNV-1" vertex="1">
          <mxGeometry x="295" y="513" width="10" height="51" as="geometry" />
        </mxCell>
        <mxCell id="yUwyfiaK7U5Z7CPqH2BY-45" value="" style="line;strokeWidth=2;direction=south;html=1;" parent="WIyWlLk6GJQsqaUBKTNV-1" vertex="1">
          <mxGeometry x="-138" y="584" width="10" height="71" as="geometry" />
        </mxCell>
        <mxCell id="yUwyfiaK7U5Z7CPqH2BY-46" value="" style="line;strokeWidth=2;direction=south;html=1;" parent="WIyWlLk6GJQsqaUBKTNV-1" vertex="1">
          <mxGeometry x="472" y="584" width="10" height="71" as="geometry" />
        </mxCell>
        <mxCell id="yUwyfiaK7U5Z7CPqH2BY-47" value="" style="line;strokeWidth=2;direction=south;html=1;" parent="WIyWlLk6GJQsqaUBKTNV-1" vertex="1">
          <mxGeometry x="295" y="584" width="10" height="71" as="geometry" />
        </mxCell>
        <mxCell id="yUwyfiaK7U5Z7CPqH2BY-49" value="" style="verticalLabelPosition=bottom;verticalAlign=top;html=1;shape=mxgraph.flowchart.on-page_reference;" parent="WIyWlLk6GJQsqaUBKTNV-1" vertex="1">
          <mxGeometry x="163" y="178" width="30" height="30" as="geometry" />
        </mxCell>
        <mxCell id="yUwyfiaK7U5Z7CPqH2BY-51" value="" style="endArrow=classic;html=1;rounded=0;entryX=0.5;entryY=0;entryDx=0;entryDy=0;entryPerimeter=0;exitX=0.5;exitY=1;exitDx=0;exitDy=0;exitPerimeter=0;" parent="WIyWlLk6GJQsqaUBKTNV-1" source="yUwyfiaK7U5Z7CPqH2BY-49" target="yUwyfiaK7U5Z7CPqH2BY-21" edge="1">
          <mxGeometry width="50" height="50" relative="1" as="geometry">
            <mxPoint x="158" y="250" as="sourcePoint" />
            <mxPoint x="208" y="200" as="targetPoint" />
          </mxGeometry>
        </mxCell>
        <mxCell id="yUwyfiaK7U5Z7CPqH2BY-52" value="" style="endArrow=classic;html=1;rounded=0;exitX=0.5;exitY=1;exitDx=0;exitDy=0;entryX=0.5;entryY=0;entryDx=0;entryDy=0;entryPerimeter=0;" parent="WIyWlLk6GJQsqaUBKTNV-1" target="yUwyfiaK7U5Z7CPqH2BY-49" edge="1">
          <mxGeometry width="50" height="50" relative="1" as="geometry">
            <mxPoint x="178" y="125" as="sourcePoint" />
            <mxPoint x="208" y="200" as="targetPoint" />
          </mxGeometry>
        </mxCell>
        <mxCell id="yUwyfiaK7U5Z7CPqH2BY-57" value="" style="edgeStyle=elbowEdgeStyle;elbow=horizontal;endArrow=classic;html=1;curved=0;rounded=0;endSize=8;startSize=8;entryX=1;entryY=0.5;entryDx=0;entryDy=0;entryPerimeter=0;" parent="WIyWlLk6GJQsqaUBKTNV-1" edge="1">
          <mxGeometry width="50" height="50" relative="1" as="geometry">
            <mxPoint x="180" y="785" as="sourcePoint" />
            <mxPoint x="193" y="193" as="targetPoint" />
            <Array as="points">
              <mxPoint x="674" y="389.5" />
            </Array>
          </mxGeometry>
        </mxCell>
        <mxCell id="yUwyfiaK7U5Z7CPqH2BY-65" value="1" style="verticalLabelPosition=top;verticalAlign=bottom;html=1;shape=offPageConnector;rounded=0;size=0.5;rotation=-180;fontSize=20;labelPosition=center;align=center;" parent="WIyWlLk6GJQsqaUBKTNV-1" vertex="1">
          <mxGeometry x="-2" y="244" width="20" height="20" as="geometry" />
        </mxCell>
        <mxCell id="yUwyfiaK7U5Z7CPqH2BY-58" value="" style="verticalLabelPosition=bottom;verticalAlign=top;html=1;shape=mxgraph.flowchart.or;" parent="WIyWlLk6GJQsqaUBKTNV-1" vertex="1">
          <mxGeometry x="-9" y="175" width="34" height="34" as="geometry" />
        </mxCell>
        <mxCell id="yUwyfiaK7U5Z7CPqH2BY-68" value="3" style="verticalLabelPosition=top;verticalAlign=bottom;html=1;shape=offPageConnector;rounded=0;size=0.5;rotation=0;fontSize=20;labelPosition=center;align=center;" parent="WIyWlLk6GJQsqaUBKTNV-1" vertex="1">
          <mxGeometry x="-2" y="116" width="20" height="20" as="geometry" />
        </mxCell>
        <mxCell id="yUwyfiaK7U5Z7CPqH2BY-69" value="2" style="verticalLabelPosition=top;verticalAlign=bottom;html=1;shape=offPageConnector;rounded=0;size=0.5;rotation=-89;fontSize=20;labelPosition=center;align=center;" parent="WIyWlLk6GJQsqaUBKTNV-1" vertex="1">
          <mxGeometry x="-72" y="182" width="20" height="20" as="geometry" />
        </mxCell>
        <mxCell id="yUwyfiaK7U5Z7CPqH2BY-70" value="" style="endArrow=classic;html=1;rounded=0;exitX=1;exitY=0.5;exitDx=0;exitDy=0;exitPerimeter=0;entryX=0;entryY=0.5;entryDx=0;entryDy=0;entryPerimeter=0;" parent="WIyWlLk6GJQsqaUBKTNV-1" source="yUwyfiaK7U5Z7CPqH2BY-58" target="yUwyfiaK7U5Z7CPqH2BY-49" edge="1">
          <mxGeometry width="50" height="50" relative="1" as="geometry">
            <mxPoint x="158" y="410" as="sourcePoint" />
            <mxPoint x="208" y="360" as="targetPoint" />
          </mxGeometry>
        </mxCell>
        <mxCell id="yUwyfiaK7U5Z7CPqH2BY-71" value="" style="edgeStyle=segmentEdgeStyle;endArrow=classic;html=1;curved=0;rounded=0;endSize=8;startSize=8;exitX=0;exitY=0.5;exitDx=0;exitDy=0;exitPerimeter=0;entryX=0.5;entryY=0;entryDx=0;entryDy=0;entryPerimeter=0;" parent="WIyWlLk6GJQsqaUBKTNV-1" source="yUwyfiaK7U5Z7CPqH2BY-21" target="yUwyfiaK7U5Z7CPqH2BY-13" edge="1">
          <mxGeometry width="50" height="50" relative="1" as="geometry">
            <mxPoint x="155" y="471" as="sourcePoint" />
            <mxPoint x="205" y="421" as="targetPoint" />
          </mxGeometry>
        </mxCell>
        <mxCell id="yUwyfiaK7U5Z7CPqH2BY-72" value="To Fun Activities" style="verticalLabelPosition=bottom;verticalAlign=top;html=1;shape=offPageConnector;rounded=0;size=0.5;rotation=0;fontSize=20;" parent="WIyWlLk6GJQsqaUBKTNV-1" vertex="1">
          <mxGeometry x="181" y="538" width="20" height="21" as="geometry" />
        </mxCell>
        <mxCell id="yUwyfiaK7U5Z7CPqH2BY-73" value="To Book a Call&amp;nbsp;" style="verticalLabelPosition=bottom;verticalAlign=top;html=1;shape=offPageConnector;rounded=0;size=0.5;rotation=0;fontSize=20;" parent="WIyWlLk6GJQsqaUBKTNV-1" vertex="1">
          <mxGeometry x="-18" y="537" width="20" height="21" as="geometry" />
        </mxCell>
        <mxCell id="yUwyfiaK7U5Z7CPqH2BY-74" value="To QnA&amp;nbsp;" style="verticalLabelPosition=bottom;verticalAlign=top;html=1;shape=offPageConnector;rounded=0;size=0.5;rotation=0;fontSize=20;" parent="WIyWlLk6GJQsqaUBKTNV-1" vertex="1">
          <mxGeometry x="-243" y="536" width="20" height="21" as="geometry" />
        </mxCell>
        <mxCell id="yUwyfiaK7U5Z7CPqH2BY-78" value="Exit" style="strokeWidth=2;html=1;shape=mxgraph.flowchart.decision;whiteSpace=wrap;fontSize=14;horizontal=1;labelBackgroundColor=none;fontStyle=1" parent="WIyWlLk6GJQsqaUBKTNV-1" vertex="1">
          <mxGeometry x="427" y="413" width="100" height="100" as="geometry" />
        </mxCell>
        <mxCell id="yUwyfiaK7U5Z7CPqH2BY-79" value="" style="endArrow=classic;html=1;rounded=0;exitX=0.5;exitY=1;exitDx=0;exitDy=0;entryX=0.5;entryY=0;entryDx=0;entryDy=0;entryPerimeter=0;" parent="WIyWlLk6GJQsqaUBKTNV-1" source="yUwyfiaK7U5Z7CPqH2BY-68" target="yUwyfiaK7U5Z7CPqH2BY-58" edge="1">
          <mxGeometry width="50" height="50" relative="1" as="geometry">
            <mxPoint x="158" y="400" as="sourcePoint" />
            <mxPoint x="208" y="350" as="targetPoint" />
          </mxGeometry>
        </mxCell>
        <mxCell id="yUwyfiaK7U5Z7CPqH2BY-80" value="" style="endArrow=classic;html=1;rounded=0;exitX=0.5;exitY=1;exitDx=0;exitDy=0;entryX=0.5;entryY=1;entryDx=0;entryDy=0;entryPerimeter=0;" parent="WIyWlLk6GJQsqaUBKTNV-1" source="yUwyfiaK7U5Z7CPqH2BY-65" target="yUwyfiaK7U5Z7CPqH2BY-58" edge="1">
          <mxGeometry width="50" height="50" relative="1" as="geometry">
            <mxPoint x="18" y="146" as="sourcePoint" />
            <mxPoint x="18" y="185" as="targetPoint" />
          </mxGeometry>
        </mxCell>
        <mxCell id="yUwyfiaK7U5Z7CPqH2BY-81" value="" style="endArrow=classic;html=1;rounded=0;exitX=0.5;exitY=1;exitDx=0;exitDy=0;entryX=0;entryY=0.5;entryDx=0;entryDy=0;entryPerimeter=0;" parent="WIyWlLk6GJQsqaUBKTNV-1" source="yUwyfiaK7U5Z7CPqH2BY-69" target="yUwyfiaK7U5Z7CPqH2BY-58" edge="1">
          <mxGeometry width="50" height="50" relative="1" as="geometry">
            <mxPoint x="28" y="156" as="sourcePoint" />
            <mxPoint x="8" y="210" as="targetPoint" />
          </mxGeometry>
        </mxCell>
        <mxCell id="yUwyfiaK7U5Z7CPqH2BY-82" value="Yes" style="rounded=1;whiteSpace=wrap;html=1;" parent="WIyWlLk6GJQsqaUBKTNV-1" vertex="1">
          <mxGeometry x="-253" y="492" width="40" height="21" as="geometry" />
        </mxCell>
        <mxCell id="yUwyfiaK7U5Z7CPqH2BY-83" value="Yes" style="rounded=1;whiteSpace=wrap;html=1;" parent="WIyWlLk6GJQsqaUBKTNV-1" vertex="1">
          <mxGeometry x="-28" y="493" width="40" height="21" as="geometry" />
        </mxCell>
        <mxCell id="yUwyfiaK7U5Z7CPqH2BY-84" value="Yes" style="rounded=1;whiteSpace=wrap;html=1;" parent="WIyWlLk6GJQsqaUBKTNV-1" vertex="1">
          <mxGeometry x="171" y="493" width="40" height="21" as="geometry" />
        </mxCell>
        <mxCell id="yUwyfiaK7U5Z7CPqH2BY-91" value="" style="endArrow=none;html=1;rounded=0;entryX=0.5;entryY=1;entryDx=0;entryDy=0;entryPerimeter=0;" parent="WIyWlLk6GJQsqaUBKTNV-1" target="yUwyfiaK7U5Z7CPqH2BY-27" edge="1">
          <mxGeometry width="50" height="50" relative="1" as="geometry">
            <mxPoint x="179" y="785" as="sourcePoint" />
            <mxPoint x="178" y="654.9999999999998" as="targetPoint" />
          </mxGeometry>
        </mxCell>
        <mxCell id="yUwyfiaK7U5Z7CPqH2BY-92" value="" style="endArrow=classic;html=1;rounded=0;exitX=0.5;exitY=1;exitDx=0;exitDy=0;entryX=0.5;entryY=0;entryDx=0;entryDy=0;" parent="WIyWlLk6GJQsqaUBKTNV-1" source="yUwyfiaK7U5Z7CPqH2BY-82" target="yUwyfiaK7U5Z7CPqH2BY-74" edge="1">
          <mxGeometry width="50" height="50" relative="1" as="geometry">
            <mxPoint x="-83" y="485" as="sourcePoint" />
            <mxPoint x="-33" y="435" as="targetPoint" />
          </mxGeometry>
        </mxCell>
        <mxCell id="yUwyfiaK7U5Z7CPqH2BY-93" value="" style="endArrow=classic;html=1;rounded=0;exitX=0.5;exitY=1;exitDx=0;exitDy=0;entryX=0.5;entryY=0;entryDx=0;entryDy=0;" parent="WIyWlLk6GJQsqaUBKTNV-1" source="yUwyfiaK7U5Z7CPqH2BY-83" target="yUwyfiaK7U5Z7CPqH2BY-73" edge="1">
          <mxGeometry width="50" height="50" relative="1" as="geometry">
            <mxPoint x="-56" y="485" as="sourcePoint" />
            <mxPoint x="-6" y="435" as="targetPoint" />
          </mxGeometry>
        </mxCell>
        <mxCell id="yUwyfiaK7U5Z7CPqH2BY-94" value="" style="endArrow=classic;html=1;rounded=0;exitX=0.5;exitY=1;exitDx=0;exitDy=0;entryX=0.5;entryY=0;entryDx=0;entryDy=0;" parent="WIyWlLk6GJQsqaUBKTNV-1" source="yUwyfiaK7U5Z7CPqH2BY-84" target="yUwyfiaK7U5Z7CPqH2BY-72" edge="1">
          <mxGeometry width="50" height="50" relative="1" as="geometry">
            <mxPoint x="-56" y="485" as="sourcePoint" />
            <mxPoint x="-6" y="435" as="targetPoint" />
          </mxGeometry>
        </mxCell>
        <mxCell id="yUwyfiaK7U5Z7CPqH2BY-97" value="End&amp;nbsp;" style="ellipse;whiteSpace=wrap;html=1;" parent="WIyWlLk6GJQsqaUBKTNV-1" vertex="1">
          <mxGeometry x="119" y="908" width="120" height="80" as="geometry" />
        </mxCell>
        <mxCell id="yUwyfiaK7U5Z7CPqH2BY-101" value="" style="edgeStyle=elbowEdgeStyle;elbow=horizontal;endArrow=classic;html=1;curved=0;rounded=0;endSize=8;startSize=8;exitX=1;exitY=0.5;exitDx=0;exitDy=0;exitPerimeter=0;entryX=1;entryY=0.5;entryDx=0;entryDy=0;" parent="WIyWlLk6GJQsqaUBKTNV-1" source="yUwyfiaK7U5Z7CPqH2BY-102" target="yUwyfiaK7U5Z7CPqH2BY-97" edge="1">
          <mxGeometry width="50" height="50" relative="1" as="geometry">
            <mxPoint x="223" y="809" as="sourcePoint" />
            <mxPoint x="273" y="759" as="targetPoint" />
            <Array as="points">
              <mxPoint x="603" y="709" />
            </Array>
          </mxGeometry>
        </mxCell>
        <mxCell id="yUwyfiaK7U5Z7CPqH2BY-103" value="" style="edgeStyle=elbowEdgeStyle;elbow=horizontal;endArrow=classic;html=1;curved=0;rounded=0;endSize=8;startSize=8;entryX=1;entryY=0.5;entryDx=0;entryDy=0;" parent="WIyWlLk6GJQsqaUBKTNV-1" edge="1">
          <mxGeometry width="50" height="50" relative="1" as="geometry">
            <mxPoint x="524" y="463" as="sourcePoint" />
            <mxPoint x="603" y="680.25" as="targetPoint" />
            <Array as="points">
              <mxPoint x="603" y="608.75" />
            </Array>
          </mxGeometry>
        </mxCell>
        <mxCell id="yUwyfiaK7U5Z7CPqH2BY-102" value="Yes" style="rounded=1;whiteSpace=wrap;html=1;" parent="WIyWlLk6GJQsqaUBKTNV-1" vertex="1">
          <mxGeometry x="583" y="670" width="40" height="21" as="geometry" />
        </mxCell>
        <mxCell id="yUwyfiaK7U5Z7CPqH2BY-104" value="" style="endArrow=none;html=1;rounded=0;exitX=0;exitY=0.5;exitDx=0;exitDy=0;exitPerimeter=0;entryX=0.5;entryY=0;entryDx=0;entryDy=0;" parent="WIyWlLk6GJQsqaUBKTNV-1" edge="1">
          <mxGeometry width="50" height="50" relative="1" as="geometry">
            <mxPoint x="249" y="464" as="sourcePoint" />
            <mxPoint x="190" y="493" as="targetPoint" />
            <Array as="points">
              <mxPoint x="190" y="464" />
            </Array>
          </mxGeometry>
        </mxCell>
        <mxCell id="yUwyfiaK7U5Z7CPqH2BY-106" value="" style="endArrow=none;html=1;rounded=0;exitX=0;exitY=0.5;exitDx=0;exitDy=0;exitPerimeter=0;entryX=0.5;entryY=0;entryDx=0;entryDy=0;" parent="WIyWlLk6GJQsqaUBKTNV-1" source="yUwyfiaK7U5Z7CPqH2BY-14" target="yUwyfiaK7U5Z7CPqH2BY-83" edge="1">
          <mxGeometry width="50" height="50" relative="1" as="geometry">
            <mxPoint x="223" y="809" as="sourcePoint" />
            <mxPoint x="273" y="759" as="targetPoint" />
            <Array as="points">
              <mxPoint x="-8" y="464" />
            </Array>
          </mxGeometry>
        </mxCell>
        <mxCell id="yUwyfiaK7U5Z7CPqH2BY-107" value="" style="endArrow=none;html=1;rounded=0;exitX=0;exitY=0.5;exitDx=0;exitDy=0;exitPerimeter=0;entryX=0.5;entryY=0;entryDx=0;entryDy=0;" parent="WIyWlLk6GJQsqaUBKTNV-1" source="yUwyfiaK7U5Z7CPqH2BY-13" target="yUwyfiaK7U5Z7CPqH2BY-82" edge="1">
          <mxGeometry width="50" height="50" relative="1" as="geometry">
            <mxPoint x="196" y="809" as="sourcePoint" />
            <mxPoint x="246" y="759" as="targetPoint" />
            <Array as="points">
              <mxPoint x="-233" y="464" />
            </Array>
          </mxGeometry>
        </mxCell>
        <mxCell id="yUwyfiaK7U5Z7CPqH2BY-108" value="&lt;h1 style=&quot;margin-top: 0px; font-size: 33px;&quot;&gt;Main BotPress FlowChart Schematic&lt;/h1&gt;" style="text;html=1;whiteSpace=wrap;overflow=hidden;rounded=0;fontSize=33;" parent="WIyWlLk6GJQsqaUBKTNV-1" vertex="1">
          <mxGeometry x="-800" y="25" width="450" height="100" as="geometry" />
        </mxCell>
        <mxCell id="yUwyfiaK7U5Z7CPqH2BY-112" value="" style="verticalLabelPosition=bottom;verticalAlign=top;html=1;shape=mxgraph.flowchart.or;" parent="WIyWlLk6GJQsqaUBKTNV-1" vertex="1">
          <mxGeometry x="-794" y="890" width="47.42" height="49" as="geometry" />
        </mxCell>
        <mxCell id="yUwyfiaK7U5Z7CPqH2BY-113" value="" style="verticalLabelPosition=bottom;verticalAlign=top;html=1;shape=mxgraph.flowchart.summing_function;" parent="WIyWlLk6GJQsqaUBKTNV-1" vertex="1">
          <mxGeometry x="-794" y="824" width="50" height="51" as="geometry" />
        </mxCell>
        <mxCell id="yUwyfiaK7U5Z7CPqH2BY-114" value="" style="verticalLabelPosition=bottom;verticalAlign=top;html=1;shape=mxgraph.flowchart.on-page_reference;" parent="WIyWlLk6GJQsqaUBKTNV-1" vertex="1">
          <mxGeometry x="-796.29" y="952" width="54" height="54" as="geometry" />
        </mxCell>
        <mxCell id="yUwyfiaK7U5Z7CPqH2BY-116" value="End&amp;nbsp;" style="ellipse;whiteSpace=wrap;html=1;" parent="WIyWlLk6GJQsqaUBKTNV-1" vertex="1">
          <mxGeometry x="-812.63" y="431" width="95.07" height="56" as="geometry" />
        </mxCell>
        <mxCell id="yUwyfiaK7U5Z7CPqH2BY-117" value="" style="endArrow=classic;html=1;rounded=0;entryX=0.5;entryY=0;entryDx=0;entryDy=0;entryPerimeter=0;" parent="WIyWlLk6GJQsqaUBKTNV-1" edge="1">
          <mxGeometry width="50" height="50" relative="1" as="geometry">
            <mxPoint x="310" y="317" as="sourcePoint" />
            <mxPoint x="310" y="424" as="targetPoint" />
          </mxGeometry>
        </mxCell>
        <mxCell id="yUwyfiaK7U5Z7CPqH2BY-118" value="" style="strokeWidth=2;html=1;shape=mxgraph.flowchart.decision;whiteSpace=wrap;fontSize=14;horizontal=1;labelBackgroundColor=none;fontStyle=1" parent="WIyWlLk6GJQsqaUBKTNV-1" vertex="1">
          <mxGeometry x="-812" y="503" width="92" height="90" as="geometry" />
        </mxCell>
        <mxCell id="yUwyfiaK7U5Z7CPqH2BY-119" value="Yes" style="rounded=1;whiteSpace=wrap;html=1;" parent="WIyWlLk6GJQsqaUBKTNV-1" vertex="1">
          <mxGeometry x="-805.3400000000001" y="756" width="78.1" height="41" as="geometry" />
        </mxCell>
        <mxCell id="yUwyfiaK7U5Z7CPqH2BY-120" value="No" style="rounded=1;whiteSpace=wrap;html=1;" parent="WIyWlLk6GJQsqaUBKTNV-1" vertex="1">
          <mxGeometry x="-805.34" y="686" width="80.01" height="42" as="geometry" />
        </mxCell>
        <mxCell id="yUwyfiaK7U5Z7CPqH2BY-121" value="Start" style="ellipse;whiteSpace=wrap;html=1;" parent="WIyWlLk6GJQsqaUBKTNV-1" vertex="1">
          <mxGeometry x="-812" y="353" width="90" height="60" as="geometry" />
        </mxCell>
        <mxCell id="yUwyfiaK7U5Z7CPqH2BY-128" value="" style="verticalLabelPosition=bottom;verticalAlign=top;html=1;shape=offPageConnector;rounded=0;size=0.5;rotation=-90;fontSize=20;" parent="WIyWlLk6GJQsqaUBKTNV-1" vertex="1">
          <mxGeometry x="-787" y="613" width="43.81" height="46" as="geometry" />
        </mxCell>
        <mxCell id="yUwyfiaK7U5Z7CPqH2BY-132" value="Key" style="text;strokeColor=none;fillColor=none;html=1;fontSize=32;fontStyle=1;verticalAlign=middle;align=center;" parent="WIyWlLk6GJQsqaUBKTNV-1" vertex="1">
          <mxGeometry x="-818.34" y="292" width="100" height="40" as="geometry" />
        </mxCell>
        <mxCell id="yUwyfiaK7U5Z7CPqH2BY-133" value="&lt;span style=&quot;font-weight: normal;&quot;&gt;&lt;font style=&quot;font-size: 20px;&quot;&gt;Normal Connector&lt;/font&gt;&lt;/span&gt;" style="text;strokeColor=none;fillColor=none;html=1;fontSize=24;fontStyle=1;verticalAlign=middle;align=center;" parent="WIyWlLk6GJQsqaUBKTNV-1" vertex="1">
          <mxGeometry x="-661" y="959" width="100" height="40" as="geometry" />
        </mxCell>
        <mxCell id="yUwyfiaK7U5Z7CPqH2BY-134" value="&lt;span style=&quot;font-weight: normal;&quot;&gt;&lt;font style=&quot;font-size: 20px;&quot;&gt;Summoning Junction&lt;/font&gt;&lt;/span&gt;" style="text;strokeColor=none;fillColor=none;html=1;fontSize=24;fontStyle=1;verticalAlign=middle;align=center;" parent="WIyWlLk6GJQsqaUBKTNV-1" vertex="1">
          <mxGeometry x="-649" y="897.5" width="100" height="40" as="geometry" />
        </mxCell>
        <mxCell id="yUwyfiaK7U5Z7CPqH2BY-135" value="&lt;span style=&quot;font-weight: normal;&quot;&gt;&lt;font style=&quot;font-size: 20px;&quot;&gt;OR Connector&lt;/font&gt;&lt;/span&gt;" style="text;strokeColor=none;fillColor=none;html=1;fontSize=24;fontStyle=1;verticalAlign=middle;align=center;" parent="WIyWlLk6GJQsqaUBKTNV-1" vertex="1">
          <mxGeometry x="-675" y="833" width="100" height="40" as="geometry" />
        </mxCell>
        <mxCell id="yUwyfiaK7U5Z7CPqH2BY-136" value="&lt;span style=&quot;font-weight: normal;&quot;&gt;&lt;font style=&quot;font-size: 20px;&quot;&gt;Positive Decision&lt;/font&gt;&lt;/span&gt;" style="text;strokeColor=none;fillColor=none;html=1;fontSize=24;fontStyle=1;verticalAlign=middle;align=center;" parent="WIyWlLk6GJQsqaUBKTNV-1" vertex="1">
          <mxGeometry x="-660" y="750" width="100" height="40" as="geometry" />
        </mxCell>
        <mxCell id="yUwyfiaK7U5Z7CPqH2BY-137" value="&lt;span style=&quot;font-weight: normal;&quot;&gt;&lt;font style=&quot;font-size: 20px;&quot;&gt;Off Page connector&lt;/font&gt;&lt;/span&gt;" style="text;strokeColor=none;fillColor=none;html=1;fontSize=24;fontStyle=1;verticalAlign=middle;align=center;" parent="WIyWlLk6GJQsqaUBKTNV-1" vertex="1">
          <mxGeometry x="-649" y="610" width="100" height="40" as="geometry" />
        </mxCell>
        <mxCell id="yUwyfiaK7U5Z7CPqH2BY-141" value="&lt;span style=&quot;font-weight: normal;&quot;&gt;&lt;font style=&quot;font-size: 20px;&quot;&gt;Decision diamond&lt;/font&gt;&lt;/span&gt;" style="text;strokeColor=none;fillColor=none;html=1;fontSize=24;fontStyle=1;verticalAlign=middle;align=center;" parent="WIyWlLk6GJQsqaUBKTNV-1" vertex="1">
          <mxGeometry x="-658" y="527" width="100" height="40" as="geometry" />
        </mxCell>
        <mxCell id="yUwyfiaK7U5Z7CPqH2BY-142" value="&lt;span style=&quot;font-weight: normal;&quot;&gt;&lt;font style=&quot;font-size: 20px;&quot;&gt;End point of the flowchart&lt;/font&gt;&lt;/span&gt;" style="text;strokeColor=none;fillColor=none;html=1;fontSize=24;fontStyle=1;verticalAlign=middle;align=center;" parent="WIyWlLk6GJQsqaUBKTNV-1" vertex="1">
          <mxGeometry x="-624" y="443" width="100" height="40" as="geometry" />
        </mxCell>
        <mxCell id="yUwyfiaK7U5Z7CPqH2BY-143" value="&lt;span style=&quot;font-weight: normal;&quot;&gt;&lt;font style=&quot;font-size: 20px;&quot;&gt;Starting point of the flowchart&amp;nbsp;&lt;/font&gt;&lt;/span&gt;" style="text;strokeColor=none;fillColor=none;html=1;fontSize=24;fontStyle=1;verticalAlign=middle;align=center;" parent="WIyWlLk6GJQsqaUBKTNV-1" vertex="1">
          <mxGeometry x="-605" y="363" width="100" height="40" as="geometry" />
        </mxCell>
        <mxCell id="yUwyfiaK7U5Z7CPqH2BY-147" value="" style="line;strokeWidth=4;html=1;perimeter=backbonePerimeter;points=[];outlineConnect=0;" parent="WIyWlLk6GJQsqaUBKTNV-1" vertex="1">
          <mxGeometry x="-813.63" y="335" width="160" height="10" as="geometry" />
        </mxCell>
        <mxCell id="nwwSrx5HGY1ErbQ8Txnz-3" value="" style="endArrow=none;html=1;rounded=0;exitX=0.5;exitY=1;exitDx=0;exitDy=0;" edge="1" parent="WIyWlLk6GJQsqaUBKTNV-1">
          <mxGeometry width="50" height="50" relative="1" as="geometry">
            <mxPoint x="83" y="616" as="sourcePoint" />
            <mxPoint x="83" y="657" as="targetPoint" />
          </mxGeometry>
        </mxCell>
        <mxCell id="nwwSrx5HGY1ErbQ8Txnz-4" value="&lt;span style=&quot;font-weight: normal;&quot;&gt;&lt;font style=&quot;font-size: 20px;&quot;&gt;Negative decision&lt;/font&gt;&lt;/span&gt;" style="text;strokeColor=none;fillColor=none;html=1;fontSize=24;fontStyle=1;verticalAlign=middle;align=center;" vertex="1" parent="WIyWlLk6GJQsqaUBKTNV-1">
          <mxGeometry x="-658" y="690" width="100" height="40" as="geometry" />
        </mxCell>
      </root>
    </mxGraphModel>
  </diagram>
</mxfile>
